<?xml version="1.0" encoding="UTF-8" standalone="no"?>
<!-- Generator: Adobe Illustrator 16.0.0, SVG Export Plug-In . SVG Version: 6.00 Build 0)  -->

<svg
   xmlns:dc="http://purl.org/dc/elements/1.1/"
   xmlns:cc="http://creativecommons.org/ns#"
   xmlns:rdf="http://www.w3.org/1999/02/22-rdf-syntax-ns#"
   xmlns:svg="http://www.w3.org/2000/svg"
   xmlns="http://www.w3.org/2000/svg"
   xmlns:sodipodi="http://sodipodi.sourceforge.net/DTD/sodipodi-0.dtd"
   xmlns:inkscape="http://www.inkscape.org/namespaces/inkscape"
   version="1.1"
   id="Capa_1"
   x="0px"
   y="0px"
   width="24"
   height="24"
   viewBox="0 0 23.999999 23.999999"
   xml:space="preserve"
   sodipodi:docname="onboard.svg"
   inkscape:version="0.92.4 5da689c313, 2019-01-14"><metadata
   id="metadata184"><rdf:RDF><cc:Work
       rdf:about=""><dc:format>image/svg+xml</dc:format><dc:type
         rdf:resource="http://purl.org/dc/dcmitype/StillImage" /><dc:title></dc:title></cc:Work></rdf:RDF></metadata><defs
   id="defs182" /><sodipodi:namedview
   pagecolor="#ffffff"
   bordercolor="#666666"
   borderopacity="1"
   objecttolerance="10"
   gridtolerance="10"
   guidetolerance="10"
   inkscape:pageopacity="0"
   inkscape:pageshadow="2"
   inkscape:window-width="2920"
   inkscape:window-height="1820"
   id="namedview180"
   showgrid="false"
   borderlayer="false"
   inkscape:pagecheckerboard="true"
   inkscape:zoom="45.254834"
   inkscape:cx="16.824506"
   inkscape:cy="11.086544"
   inkscape:window-x="40"
   inkscape:window-y="140"
   inkscape:window-maximized="1"
   inkscape:current-layer="Capa_1" />
<g
   id="g147"
   transform="matrix(0.04378156,0,0,0.04378156,0,-9.67e-5)"
   style="fill:#ffffff;fill-opacity:1">
	<g
   id="g145"
   style="fill:#ffffff;fill-opacity:1">
		<path
   d="m 537.468,120.342 c -7.139,-7.139 -15.753,-10.709 -25.841,-10.709 H 36.545 c -10.088,0 -18.699,3.571 -25.837,10.709 C 3.571,127.48 0,136.094 0,146.179 v 255.815 c 0,10.089 3.571,18.698 10.708,25.837 7.139,7.139 15.749,10.712 25.837,10.712 h 475.082 c 10.088,0 18.702,-3.573 25.841,-10.712 7.135,-7.139 10.708,-15.748 10.708,-25.837 V 146.179 c 0,-10.085 -3.573,-18.699 -10.708,-25.837 z M 511.627,401.994 H 36.545 V 146.179 h 475.082 z"
   id="path117"
   inkscape:connector-curvature="0"
   style="fill:#ffffff;fill-opacity:1" />
		<path
   d="m 77.657,365.445 h 27.408 c 3.046,0 4.569,-1.526 4.569,-4.568 v -27.408 c 0,-3.039 -1.52,-4.568 -4.569,-4.568 H 77.657 c -3.044,0 -4.568,1.529 -4.568,4.568 v 27.408 c 0,3.042 1.524,4.568 4.568,4.568 z"
   id="path119"
   inkscape:connector-curvature="0"
   style="fill:#ffffff;fill-opacity:1" />
		<path
   d="m 77.657,292.362 h 63.954 c 3.045,0 4.57,-1.53 4.57,-4.572 v -27.41 c 0,-3.045 -1.525,-4.565 -4.57,-4.568 H 77.657 c -3.044,0 -4.568,1.523 -4.568,4.568 v 27.41 c 0,3.042 1.524,4.572 4.568,4.572 z"
   id="path121"
   inkscape:connector-curvature="0"
   style="fill:#ffffff;fill-opacity:1" />
		<path
   d="m 77.657,219.268 h 27.408 c 3.046,0 4.569,-1.525 4.569,-4.57 v -27.406 c 0,-3.046 -1.52,-4.565 -4.569,-4.57 H 77.657 c -3.044,0 -4.568,1.524 -4.568,4.57 v 27.406 c 0,3.045 1.524,4.57 4.568,4.57 z"
   id="path123"
   inkscape:connector-curvature="0"
   style="fill:#ffffff;fill-opacity:1" />
		<path
   d="M 397.43,328.903 H 150.751 c -3.046,0 -4.57,1.526 -4.57,4.572 v 27.404 c 0,3.039 1.524,4.572 4.57,4.572 h 246.67 c 3.046,0 4.572,-1.526 4.572,-4.572 v -27.404 c 0.001,-3.045 -1.525,-4.572 -4.563,-4.572 z"
   id="path125"
   inkscape:connector-curvature="0"
   style="fill:#ffffff;fill-opacity:1" />
		<path
   d="m 182.725,287.79 c 0,3.042 1.523,4.572 4.565,4.572 h 27.412 c 3.044,0 4.565,-1.53 4.565,-4.572 v -27.41 c 0,-3.045 -1.518,-4.565 -4.565,-4.568 H 187.29 c -3.042,0 -4.565,1.523 -4.565,4.568 z"
   id="path127"
   inkscape:connector-curvature="0"
   style="fill:#ffffff;fill-opacity:1" />
		<path
   d="m 150.751,219.268 h 27.406 c 3.046,0 4.57,-1.525 4.57,-4.57 v -27.406 c 0,-3.046 -1.524,-4.565 -4.57,-4.57 h -27.406 c -3.046,0 -4.57,1.524 -4.57,4.57 v 27.406 c 0,3.045 1.525,4.57 4.57,4.57 z"
   id="path129"
   inkscape:connector-curvature="0"
   style="fill:#ffffff;fill-opacity:1" />
		<path
   d="m 255.813,287.79 c 0,3.042 1.524,4.572 4.568,4.572 h 27.408 c 3.046,0 4.572,-1.53 4.572,-4.572 v -27.41 c 0,-3.045 -1.526,-4.565 -4.572,-4.568 h -27.408 c -3.044,0 -4.568,1.523 -4.568,4.568 z"
   id="path131"
   inkscape:connector-curvature="0"
   style="fill:#ffffff;fill-opacity:1" />
		<path
   d="m 223.837,219.268 h 27.406 c 3.046,0 4.57,-1.525 4.57,-4.57 v -27.406 c 0,-3.046 -1.521,-4.565 -4.57,-4.57 h -27.406 c -3.046,0 -4.57,1.524 -4.57,4.57 v 27.406 c 0,3.045 1.524,4.57 4.57,4.57 z"
   id="path133"
   inkscape:connector-curvature="0"
   style="fill:#ffffff;fill-opacity:1" />
		<path
   d="m 328.904,287.79 c 0,3.042 1.525,4.572 4.564,4.572 h 27.412 c 3.045,0 4.564,-1.53 4.564,-4.572 v -27.41 c 0,-3.045 -1.52,-4.565 -4.564,-4.568 h -27.412 c -3.039,0 -4.564,1.523 -4.564,4.568 z"
   id="path135"
   inkscape:connector-curvature="0"
   style="fill:#ffffff;fill-opacity:1" />
		<path
   d="m 470.513,328.903 h -27.404 c -3.046,0 -4.572,1.526 -4.572,4.572 v 27.404 c 0,3.039 1.526,4.572 4.572,4.572 h 27.404 c 3.046,0 4.572,-1.526 4.572,-4.572 v -27.404 c 0,-3.045 -1.523,-4.572 -4.572,-4.572 z"
   id="path137"
   inkscape:connector-curvature="0"
   style="fill:#ffffff;fill-opacity:1" />
		<path
   d="m 296.928,219.268 h 27.411 c 3.046,0 4.565,-1.525 4.565,-4.57 v -27.406 c 0,-3.046 -1.52,-4.565 -4.565,-4.57 h -27.411 c -3.046,0 -4.565,1.524 -4.565,4.57 v 27.406 c -10e-4,3.045 1.519,4.57 4.565,4.57 z"
   id="path139"
   inkscape:connector-curvature="0"
   style="fill:#ffffff;fill-opacity:1" />
		<path
   d="m 370.018,219.268 h 27.404 c 3.046,0 4.572,-1.525 4.572,-4.57 v -27.406 c 0,-3.046 -1.526,-4.565 -4.572,-4.57 h -27.404 c -3.046,0 -4.572,1.524 -4.572,4.57 v 27.406 c -0.001,3.045 1.526,4.57 4.572,4.57 z"
   id="path141"
   inkscape:connector-curvature="0"
   style="fill:#ffffff;fill-opacity:1" />
		<path
   d="m 401.991,287.79 c 0,3.042 1.522,4.572 4.568,4.572 h 63.953 c 3.046,0 4.572,-1.53 4.572,-4.572 V 187.292 c 0,-3.046 -1.522,-4.565 -4.572,-4.57 h -27.404 c -3.046,0 -4.572,1.524 -4.572,4.57 v 68.52 H 406.56 c -3.046,0 -4.568,1.523 -4.568,4.568 v 27.41 z"
   id="path143"
   inkscape:connector-curvature="0"
   style="fill:#ffffff;fill-opacity:1" />
	</g>
</g>
<g
   id="g149"
   transform="matrix(0.04378156,0,0,0.04378156,0,-9.67e-5)"
   style="fill:#ffffff;fill-opacity:1">
</g>
<g
   id="g151"
   transform="matrix(0.04378156,0,0,0.04378156,0,-9.67e-5)"
   style="fill:#ffffff;fill-opacity:1">
</g>
<g
   id="g153"
   transform="matrix(0.04378156,0,0,0.04378156,0,-9.67e-5)"
   style="fill:#ffffff;fill-opacity:1">
</g>
<g
   id="g155"
   transform="matrix(0.04378156,0,0,0.04378156,0,-9.67e-5)"
   style="fill:#ffffff;fill-opacity:1">
</g>
<g
   id="g157"
   transform="matrix(0.04378156,0,0,0.04378156,0,-9.67e-5)"
   style="fill:#ffffff;fill-opacity:1">
</g>
<g
   id="g159"
   transform="matrix(0.04378156,0,0,0.04378156,0,-9.67e-5)"
   style="fill:#ffffff;fill-opacity:1">
</g>
<g
   id="g161"
   transform="matrix(0.04378156,0,0,0.04378156,0,-9.67e-5)"
   style="fill:#ffffff;fill-opacity:1">
</g>
<g
   id="g163"
   transform="matrix(0.04378156,0,0,0.04378156,0,-9.67e-5)"
   style="fill:#ffffff;fill-opacity:1">
</g>
<g
   id="g165"
   transform="matrix(0.04378156,0,0,0.04378156,0,-9.67e-5)"
   style="fill:#ffffff;fill-opacity:1">
</g>
<g
   id="g167"
   transform="matrix(0.04378156,0,0,0.04378156,0,-9.67e-5)"
   style="fill:#ffffff;fill-opacity:1">
</g>
<g
   id="g169"
   transform="matrix(0.04378156,0,0,0.04378156,0,-9.67e-5)"
   style="fill:#ffffff;fill-opacity:1">
</g>
<g
   id="g171"
   transform="matrix(0.04378156,0,0,0.04378156,0,-9.67e-5)"
   style="fill:#ffffff;fill-opacity:1">
</g>
<g
   id="g173"
   transform="matrix(0.04378156,0,0,0.04378156,0,-9.67e-5)"
   style="fill:#ffffff;fill-opacity:1">
</g>
<g
   id="g175"
   transform="matrix(0.04378156,0,0,0.04378156,0,-9.67e-5)"
   style="fill:#ffffff;fill-opacity:1">
</g>
<g
   id="g177"
   transform="matrix(0.04378156,0,0,0.04378156,0,-9.67e-5)"
   style="fill:#ffffff;fill-opacity:1">
</g>
</svg>